<?xml version="1.0" standalone="no"?>
<!DOCTYPE svg PUBLIC "-//W3C//DTD SVG 20010904//EN"
 "http://www.w3.org/TR/2001/REC-SVG-20010904/DTD/svg10.dtd">
<svg version="1.0" xmlns="http://www.w3.org/2000/svg"
 width="204.000000pt" height="204.000000pt" viewBox="0 0 204.000000 204.000000"
 preserveAspectRatio="xMidYMid meet">
<metadata>
Created by potrace 1.11, written by Peter Selinger 2001-2013
</metadata>
<g transform="translate(0.000000,204.000000) scale(0.100000,-0.100000)"
fill="#000000" stroke="none">
<path d="M945 2021 c-90 -41 -182 -181 -235 -357 l-21 -71 -77 19 c-53 14
-115 20 -202 21 -119 2 -128 1 -183 -26 -171 -84 -147 -281 62 -511 33 -38 61
-72 61 -76 0 -4 -28 -38 -61 -76 -209 -230 -233 -427 -62 -511 55 -27 64 -28
183 -26 87 1 149 7 202 21 l77 19 21 -71 c69 -228 191 -376 310 -376 119 0
241 148 310 376 l21 71 77 -19 c53 -14 115 -20 202 -21 119 -2 128 -1 183 26
171 84 147 281 -62 511 -33 38 -61 72 -61 76 0 4 28 38 61 76 209 230 233 427
62 511 -55 27 -64 28 -183 26 -87 -1 -149 -7 -202 -21 l-77 -19 -21 71 c-69
228 -191 376 -310 376 -19 0 -53 -9 -75 -19z m138 -154 c51 -31 100 -94 143
-184 54 -115 58 -107 -83 -165 l-123 -50 -122 50 c-142 58 -138 50 -84 165 59
124 141 207 206 207 14 0 42 -11 63 -23z m-430 -352 c13 -5 17 -14 13 -29 -4
-11 -12 -70 -19 -130 -11 -106 -12 -109 -46 -135 -18 -14 -66 -52 -106 -83
-40 -32 -75 -58 -78 -58 -10 0 -99 125 -123 173 -28 55 -45 130 -37 169 7 37
45 74 96 92 32 12 72 15 162 12 66 -2 128 -7 138 -11z m1058 -13 c25 -12 52
-34 60 -49 22 -40 14 -117 -19 -187 -27 -56 -117 -186 -129 -186 -3 0 -38 26
-78 58 -40 31 -88 69 -107 84 -34 25 -35 30 -42 109 -4 46 -11 103 -17 127 -5
25 -8 47 -5 49 14 14 83 22 181 20 92 -2 118 -6 156 -25z m-883 -32 c34 -11
74 -26 88 -33 l26 -13 -64 -34 c-35 -18 -87 -48 -115 -66 -62 -39 -61 -41 -37
84 9 45 22 82 28 82 6 0 39 -9 74 -20z m486 -62 c24 -125 25 -123 -36 -84 -29
18 -81 48 -116 66 -72 38 -72 39 38 76 98 34 95 36 114 -58z m-189 -66 c50
-27 120 -68 158 -92 l67 -43 0 -187 0 -187 -72 -47 c-40 -25 -115 -68 -165
-94 l-93 -47 -92 47 c-51 26 -126 69 -165 94 l-73 47 0 187 0 187 68 43 c88
57 243 140 262 140 8 0 56 -22 105 -48z m-495 -322 c0 -71 -4 -130 -9 -130 -5
0 -40 29 -77 65 l-69 65 69 65 c37 36 72 65 77 65 5 0 9 -58 9 -130z m865 65
l70 -65 -70 -65 c-38 -36 -73 -65 -77 -65 -4 0 -8 59 -8 130 0 72 4 130 8 130
4 0 39 -29 77 -65z m-1000 -182 c40 -32 88 -70 106 -84 34 -26 35 -29 46 -135
7 -60 15 -119 19 -131 9 -31 -23 -38 -171 -38 -104 0 -126 3 -166 23 -25 12
-52 34 -60 49 -22 40 -14 117 19 187 27 56 117 186 129 186 3 0 38 -26 78 -57z
m1181 -5 c92 -123 130 -246 95 -311 -8 -15 -35 -37 -60 -49 -40 -20 -62 -23
-166 -23 -148 0 -180 7 -171 38 4 12 12 71 19 131 11 106 12 109 46 135 18 14
66 52 105 83 39 31 74 57 78 58 3 0 28 -28 54 -62z m-798 -248 l64 -34 -26
-13 c-28 -15 -144 -53 -162 -53 -6 0 -19 37 -28 83 -24 124 -25 122 37 83 28
-18 80 -48 115 -66z m437 -11 c-10 -49 -23 -89 -29 -89 -18 0 -134 38 -162 53
-25 13 -25 14 55 57 45 24 96 53 114 66 17 12 34 18 36 12 2 -5 -5 -50 -14
-99z m-170 -118 c138 -56 135 -49 81 -164 -59 -124 -141 -207 -206 -207 -65 0
-147 83 -206 207 -54 114 -57 108 76 163 63 26 120 48 125 49 6 1 64 -21 130
-48z"/>
<path d="M958 1246 c-205 -56 -235 -337 -45 -435 135 -69 304 10 336 159 37
171 -122 322 -291 276z"/>
</g>
</svg>
